<svg width="53" height="52" viewBox="0 0 53 52" fill="none" xmlns="http://www.w3.org/2000/svg">
<g clip-path="url(#clip0_1_78)">
<rect x="0.867981" y="11.1472" width="42" height="42" rx="21" transform="rotate(-15 0.867981 11.1472)" fill="#28E9BA"/>
<g filter="url(#filter0_d_1_78)">
<path d="M16.7389 19.6673C16.4686 18.6586 16.6101 17.5839 17.1323 16.6795C17.6544 15.7751 18.5144 15.1152 19.5232 14.8449C20.5319 14.5746 21.6066 14.7161 22.511 15.2383C23.4154 15.7604 24.0753 16.6204 24.3456 17.6291C24.0753 16.6204 24.2168 15.5457 24.7389 14.6413C25.2611 13.7369 26.1211 13.077 27.1298 12.8067C28.1385 12.5364 29.2133 12.6779 30.1177 13.2001C31.0221 13.7222 31.682 14.5822 31.9523 15.5909L31.9547 15.6001C31.9832 15.7065 32.0648 16.0108 32.0983 16.3671L35.1987 15.5363C35.6022 15.4282 36.0321 15.4848 36.3939 15.6937C36.7556 15.9025 37.0196 16.2465 37.1277 16.65L37.5354 18.1713C37.6435 18.5748 37.5869 19.0047 37.378 19.3665C37.1692 19.7282 36.8251 19.9922 36.4217 20.1003L15.123 25.8073C14.7195 25.9154 14.2896 25.8588 13.9279 25.6499C13.5661 25.4411 13.3021 25.0971 13.194 24.6936L12.7864 23.1722C12.6783 22.7688 12.7349 22.3389 12.9437 21.9771C13.1526 21.6154 13.4966 21.3514 13.9001 21.2433L17.0006 20.4125C16.8938 20.1748 16.8071 19.9286 16.7414 19.6765L16.7389 19.6673ZM18.5675 19.9926L23.0281 18.7974L22.8243 18.0368C22.744 17.7371 22.6054 17.4562 22.4166 17.21C22.2277 16.9639 21.9922 16.7574 21.7235 16.6022C21.4548 16.4471 21.1582 16.3464 20.8506 16.3059C20.543 16.2654 20.2305 16.2859 19.9308 16.3662C19.6311 16.4465 19.3502 16.5851 19.1041 16.7739C18.8579 16.9628 18.6514 17.1983 18.4963 17.467C18.3411 17.7357 18.2405 18.0323 18.2 18.3399C18.1595 18.6475 18.18 18.96 18.2603 19.2597C18.2949 19.389 18.375 19.6757 18.504 19.8955C18.5229 19.9293 18.5441 19.9618 18.5675 19.9926ZM26.0707 17.9822L30.5313 16.787C30.536 16.7485 30.5381 16.7098 30.5377 16.6711C30.5396 16.4162 30.4656 16.1279 30.4309 15.9986C30.2688 15.3933 29.8728 14.8773 29.3302 14.564C28.7875 14.2508 28.1427 14.1659 27.5375 14.328C26.9322 14.4902 26.4162 14.8861 26.1029 15.4288C25.7896 15.9714 25.7048 16.6163 25.8669 17.2215L26.0707 17.9822ZM36.8293 21.6216L39.8866 33.0316C40.0488 33.6369 39.9639 34.2817 39.6506 34.8244C39.3373 35.367 38.8213 35.7629 38.2161 35.9251L31.3701 37.7595L27.7013 24.0675L36.8293 21.6216ZM21.4814 40.4091C20.8762 40.5713 20.2313 40.4864 19.6887 40.1731C19.1461 39.8598 18.7501 39.3438 18.5879 38.7386L15.5306 27.3286L24.6586 24.8828L28.3274 38.5748L21.4814 40.4091Z" fill="white"/>
</g>
</g>
<defs>
<filter id="filter0_d_1_78" x="8.73273" y="12.6725" width="35.2344" height="35.8171" filterUnits="userSpaceOnUse" color-interpolation-filters="sRGB">
<feFlood flood-opacity="0" result="BackgroundImageFix"/>
<feColorMatrix in="SourceAlpha" type="matrix" values="0 0 0 0 0 0 0 0 0 0 0 0 0 0 0 0 0 0 127 0" result="hardAlpha"/>
<feOffset dy="4"/>
<feGaussianBlur stdDeviation="2"/>
<feComposite in2="hardAlpha" operator="out"/>
<feColorMatrix type="matrix" values="0 0 0 0 0 0 0 0 0 0 0 0 0 0 0 0 0 0 0.25 0"/>
<feBlend mode="normal" in2="BackgroundImageFix" result="effect1_dropShadow_1_78"/>
<feBlend mode="normal" in="SourceGraphic" in2="effect1_dropShadow_1_78" result="shape"/>
</filter>
<clipPath id="clip0_1_78">
<rect x="0.867981" y="11.1472" width="42" height="42" rx="21" transform="rotate(-15 0.867981 11.1472)" fill="white"/>
</clipPath>
</defs>
</svg>
