<svg width="146" height="184" viewBox="0 0 146 184" fill="none" xmlns="http://www.w3.org/2000/svg">
<g filter="url(#filter0_d_1_80)">
<rect x="23" y="33" width="90" height="128" rx="15" fill="white"/>
</g>
<path d="M52.1846 118V117.747H52.4922C52.7611 117.747 52.9661 117.706 53.1074 117.624C53.2533 117.537 53.3604 117.421 53.4287 117.275C53.4697 117.18 53.4902 116.893 53.4902 116.414V110.316C53.4902 109.842 53.4652 109.546 53.415 109.428C53.3649 109.309 53.2624 109.207 53.1074 109.12C52.957 109.029 52.752 108.983 52.4922 108.983H52.1846V108.73H56.334C57.4414 108.73 58.3324 108.881 59.0068 109.182C59.8317 109.551 60.4561 110.109 60.8799 110.856C61.3083 111.604 61.5225 112.449 61.5225 113.393C61.5225 114.044 61.4176 114.646 61.208 115.197C60.9984 115.744 60.7272 116.198 60.3945 116.558C60.0618 116.913 59.6768 117.2 59.2393 117.419C58.8063 117.633 58.2754 117.799 57.6465 117.918C57.3685 117.973 56.931 118 56.334 118H52.1846ZM55.7188 109.257V116.489C55.7188 116.872 55.737 117.107 55.7734 117.193C55.8099 117.28 55.8714 117.346 55.958 117.392C56.0811 117.46 56.2588 117.494 56.4912 117.494C57.2523 117.494 57.8333 117.234 58.2344 116.715C58.7812 116.013 59.0547 114.924 59.0547 113.447C59.0547 112.258 58.8678 111.308 58.4941 110.597C58.1979 110.041 57.8174 109.662 57.3525 109.462C57.0244 109.321 56.4798 109.252 55.7188 109.257ZM66.1162 117.057C65.3369 117.745 64.6374 118.089 64.0176 118.089C63.653 118.089 63.3499 117.97 63.1084 117.733C62.8669 117.492 62.7461 117.191 62.7461 116.831C62.7461 116.343 62.9557 115.906 63.375 115.519C63.7943 115.127 64.708 114.607 66.1162 113.96V113.317C66.1162 112.834 66.0889 112.531 66.0342 112.408C65.984 112.281 65.8861 112.171 65.7402 112.08C65.5944 111.984 65.4303 111.937 65.248 111.937C64.9518 111.937 64.708 112.003 64.5166 112.135C64.3981 112.217 64.3389 112.312 64.3389 112.422C64.3389 112.518 64.4027 112.636 64.5303 112.777C64.7035 112.973 64.79 113.162 64.79 113.345C64.79 113.568 64.7057 113.759 64.5371 113.919C64.373 114.074 64.1566 114.151 63.8877 114.151C63.6006 114.151 63.359 114.065 63.1631 113.892C62.9717 113.718 62.876 113.516 62.876 113.283C62.876 112.955 63.0059 112.643 63.2656 112.347C63.5254 112.046 63.8877 111.816 64.3525 111.656C64.8174 111.497 65.3005 111.417 65.8018 111.417C66.4079 111.417 66.8864 111.547 67.2373 111.807C67.5928 112.062 67.8229 112.34 67.9277 112.641C67.9915 112.832 68.0234 113.272 68.0234 113.96V116.441C68.0234 116.733 68.0348 116.918 68.0576 116.995C68.0804 117.068 68.1146 117.123 68.1602 117.159C68.2057 117.196 68.2581 117.214 68.3174 117.214C68.4359 117.214 68.5566 117.13 68.6797 116.961L68.8848 117.125C68.6569 117.462 68.4199 117.708 68.1738 117.863C67.9323 118.014 67.6566 118.089 67.3467 118.089C66.9821 118.089 66.6973 118.005 66.4922 117.836C66.2871 117.663 66.1618 117.403 66.1162 117.057ZM66.1162 116.558V114.418C65.5648 114.742 65.1546 115.088 64.8857 115.457C64.708 115.703 64.6191 115.951 64.6191 116.202C64.6191 116.412 64.6943 116.596 64.8447 116.756C64.9587 116.879 65.1182 116.94 65.3232 116.94C65.5511 116.94 65.8154 116.813 66.1162 116.558ZM71.127 108.512C71.4232 108.512 71.6738 108.617 71.8789 108.826C72.084 109.031 72.1865 109.28 72.1865 109.571C72.1865 109.863 72.0817 110.111 71.8721 110.316C71.667 110.521 71.4186 110.624 71.127 110.624C70.8353 110.624 70.5869 110.521 70.3818 110.316C70.1768 110.111 70.0742 109.863 70.0742 109.571C70.0742 109.28 70.1768 109.031 70.3818 108.826C70.5869 108.617 70.8353 108.512 71.127 108.512ZM72.084 111.608V116.674C72.084 117.125 72.1364 117.414 72.2412 117.542C72.346 117.665 72.5511 117.736 72.8564 117.754V118H69.4043V117.754C69.6868 117.745 69.8965 117.663 70.0332 117.508C70.1243 117.403 70.1699 117.125 70.1699 116.674V112.941C70.1699 112.49 70.1175 112.203 70.0127 112.08C69.9079 111.952 69.7051 111.88 69.4043 111.861V111.608H72.084ZM75.9873 108.73V116.674C75.9873 117.125 76.0397 117.414 76.1445 117.542C76.2493 117.665 76.4544 117.736 76.7598 117.754V118H73.3076V117.754C73.5902 117.745 73.7998 117.663 73.9365 117.508C74.0277 117.403 74.0732 117.125 74.0732 116.674V110.057C74.0732 109.61 74.0208 109.325 73.916 109.202C73.8112 109.075 73.6084 109.002 73.3076 108.983V108.73H75.9873ZM80.3145 118.26L78.25 113.522C77.9401 112.807 77.71 112.367 77.5596 112.203C77.4137 112.039 77.236 111.925 77.0264 111.861V111.608H80.4238V111.861C80.2005 111.87 80.0433 111.914 79.9521 111.991C79.861 112.069 79.8154 112.162 79.8154 112.271C79.8154 112.445 79.9294 112.786 80.1572 113.297L81.251 115.799L81.9961 113.864C82.265 113.176 82.3994 112.698 82.3994 112.429C82.3994 112.26 82.3424 112.126 82.2285 112.025C82.1191 111.925 81.9232 111.87 81.6406 111.861V111.608H83.7803V111.861C83.5706 111.884 83.3997 111.966 83.2676 112.107C83.1354 112.244 82.9144 112.716 82.6045 113.522L80.7793 118.26C80.319 119.445 79.9772 120.174 79.7539 120.447C79.4395 120.83 79.0452 121.021 78.5713 121.021C78.193 121.021 77.8854 120.912 77.6484 120.693C77.416 120.479 77.2998 120.219 77.2998 119.914C77.2998 119.65 77.3796 119.431 77.5391 119.258C77.7031 119.085 77.9036 118.998 78.1406 118.998C78.3685 118.998 78.5508 119.071 78.6875 119.217C78.8288 119.363 78.9017 119.588 78.9062 119.894C78.9108 120.067 78.9313 120.178 78.9678 120.229C79.0042 120.279 79.0566 120.304 79.125 120.304C79.2344 120.304 79.3506 120.238 79.4736 120.105C79.6559 119.914 79.8701 119.477 80.1162 118.793L80.3145 118.26ZM57.4072 124.601C58.8838 124.546 60.0824 124.977 61.0029 125.893C61.9281 126.809 62.3906 127.955 62.3906 129.331C62.3906 130.507 62.0465 131.541 61.3584 132.435C60.4469 133.619 59.1595 134.212 57.4961 134.212C55.8281 134.212 54.5384 133.647 53.627 132.517C52.9069 131.623 52.5469 130.564 52.5469 129.338C52.5469 127.962 53.014 126.815 53.9482 125.899C54.887 124.979 56.04 124.546 57.4072 124.601ZM57.4893 125.038C56.6416 125.038 55.9967 125.471 55.5547 126.337C55.1947 127.048 55.0146 128.069 55.0146 129.399C55.0146 130.981 55.2926 132.15 55.8486 132.906C56.236 133.435 56.7783 133.699 57.4756 133.699C57.945 133.699 58.3369 133.585 58.6514 133.357C59.0524 133.066 59.3646 132.601 59.5879 131.963C59.8112 131.32 59.9229 130.484 59.9229 129.454C59.9229 128.228 59.8089 127.312 59.5811 126.706C59.3532 126.095 59.0615 125.665 58.7061 125.414C58.3551 125.163 57.9495 125.038 57.4893 125.038ZM66.1709 128.278V132.715C66.1709 133.143 66.2165 133.412 66.3076 133.521C66.4535 133.69 66.7223 133.768 67.1143 133.754V134H63.3477V133.754C63.6348 133.749 63.8376 133.717 63.9561 133.658C64.0791 133.594 64.1634 133.508 64.209 133.398C64.2546 133.289 64.2773 133.061 64.2773 132.715V128.278H63.3477V127.608H64.2773V127.137L64.2705 126.815C64.2705 126.159 64.5098 125.612 64.9883 125.175C65.4714 124.737 66.123 124.519 66.9434 124.519C67.5039 124.519 67.9186 124.623 68.1875 124.833C68.4609 125.043 68.5977 125.275 68.5977 125.53C68.5977 125.735 68.5133 125.913 68.3447 126.063C68.1761 126.214 67.9528 126.289 67.6748 126.289C67.4378 126.289 67.2487 126.228 67.1074 126.104C66.9707 125.981 66.9023 125.845 66.9023 125.694C66.9023 125.653 66.916 125.569 66.9434 125.441C66.9616 125.364 66.9707 125.291 66.9707 125.223C66.9707 125.127 66.9434 125.056 66.8887 125.011C66.8158 124.942 66.7269 124.908 66.6221 124.908C66.4899 124.908 66.3783 124.963 66.2871 125.072C66.2005 125.182 66.1572 125.357 66.1572 125.599L66.1709 126.795V127.608H67.1143V128.278H66.1709ZM70.833 128.278V132.715C70.833 133.143 70.8786 133.412 70.9697 133.521C71.1156 133.69 71.3844 133.768 71.7764 133.754V134H68.0098V133.754C68.2969 133.749 68.4997 133.717 68.6182 133.658C68.7412 133.594 68.8255 133.508 68.8711 133.398C68.9167 133.289 68.9395 133.061 68.9395 132.715V128.278H68.0098V127.608H68.9395V127.137L68.9326 126.815C68.9326 126.159 69.1719 125.612 69.6504 125.175C70.1335 124.737 70.7852 124.519 71.6055 124.519C72.166 124.519 72.5807 124.623 72.8496 124.833C73.123 125.043 73.2598 125.275 73.2598 125.53C73.2598 125.735 73.1755 125.913 73.0068 126.063C72.8382 126.214 72.6149 126.289 72.3369 126.289C72.0999 126.289 71.9108 126.228 71.7695 126.104C71.6328 125.981 71.5645 125.845 71.5645 125.694C71.5645 125.653 71.5781 125.569 71.6055 125.441C71.6237 125.364 71.6328 125.291 71.6328 125.223C71.6328 125.127 71.6055 125.056 71.5508 125.011C71.4779 124.942 71.389 124.908 71.2842 124.908C71.152 124.908 71.0404 124.963 70.9492 125.072C70.8626 125.182 70.8193 125.357 70.8193 125.599L70.833 126.795V127.608H71.7764V128.278H70.833ZM78.1064 130.575H74.5996C74.6406 131.423 74.8662 132.093 75.2764 132.585C75.5908 132.963 75.9691 133.152 76.4111 133.152C76.6846 133.152 76.9329 133.077 77.1562 132.927C77.3796 132.772 77.6188 132.496 77.874 132.1L78.1064 132.25C77.7601 132.956 77.3773 133.458 76.958 133.754C76.5387 134.046 76.0534 134.191 75.502 134.191C74.554 134.191 73.8363 133.827 73.3486 133.098C72.9567 132.51 72.7607 131.781 72.7607 130.91C72.7607 129.844 73.0479 128.996 73.6221 128.367C74.2008 127.734 74.8776 127.417 75.6523 127.417C76.2995 127.417 76.86 127.684 77.334 128.217C77.8125 128.745 78.07 129.532 78.1064 130.575ZM76.4248 130.117C76.4248 129.383 76.3838 128.88 76.3018 128.606C76.2243 128.333 76.1012 128.126 75.9326 127.984C75.8369 127.902 75.7093 127.861 75.5498 127.861C75.3128 127.861 75.1191 127.978 74.9688 128.21C74.6999 128.616 74.5654 129.172 74.5654 129.878V130.117H76.4248ZM81.5654 127.608V129.058C81.9893 128.397 82.3607 127.959 82.6797 127.745C82.9987 127.526 83.3063 127.417 83.6025 127.417C83.8577 127.417 84.0605 127.497 84.2109 127.656C84.3659 127.811 84.4434 128.032 84.4434 128.319C84.4434 128.625 84.3682 128.862 84.2178 129.03C84.0719 129.199 83.8942 129.283 83.6846 129.283C83.443 129.283 83.2334 129.206 83.0557 129.051C82.8779 128.896 82.7731 128.809 82.7412 128.791C82.6956 128.764 82.6432 128.75 82.584 128.75C82.4518 128.75 82.3265 128.8 82.208 128.9C82.0212 129.055 81.8799 129.276 81.7842 129.563C81.6383 130.006 81.5654 130.493 81.5654 131.026V132.496L81.5723 132.879C81.5723 133.139 81.5882 133.305 81.6201 133.378C81.6748 133.501 81.7546 133.592 81.8594 133.651C81.9688 133.706 82.151 133.74 82.4062 133.754V134H78.9541V133.754C79.2321 133.731 79.4189 133.656 79.5146 133.528C79.6149 133.396 79.665 133.052 79.665 132.496V128.962C79.665 128.597 79.6468 128.365 79.6104 128.265C79.5648 128.137 79.4987 128.044 79.4121 127.984C79.3255 127.925 79.1729 127.884 78.9541 127.861V127.608H81.5654Z" fill="black"/>
<path d="M43.049 85.4836C41.406 84.8766 40.6303 82.9972 41.3667 81.4081L44.2154 75.2615C44.5862 74.4614 44.5862 73.5386 44.2154 72.7385L41.3667 66.5919C40.6303 65.0028 41.406 63.1234 43.049 62.5164L50.4385 59.7863C51.1824 59.5114 51.7872 58.9532 52.1207 58.2337L55.2357 51.5122C55.8933 50.0934 57.5304 49.4176 58.9973 49.9596L66.9603 52.9016C67.6313 53.1495 68.3687 53.1495 69.0397 52.9016L77.0027 49.9596C78.4696 49.4176 80.1067 50.0934 80.7643 51.5122L83.8793 58.2337C84.2128 58.9532 84.8176 59.5114 85.5615 59.7863L92.951 62.5164C94.594 63.1234 95.3697 65.0028 94.6333 66.5919L91.7846 72.7385C91.4138 73.5386 91.4138 74.4614 91.7846 75.2615L94.6333 81.4081C95.3697 82.9972 94.594 84.8766 92.951 85.4836L85.5615 88.2137C84.8176 88.4886 84.2128 89.0468 83.8793 89.7663L80.7643 96.4878C80.1067 97.9066 78.4696 98.5824 77.0027 98.0404L69.0397 95.0984C68.3687 94.8505 67.6313 94.8505 66.9603 95.0984L58.9973 98.0404C57.5304 98.5824 55.8933 97.9066 55.2357 96.4878L52.1207 89.7663C51.7872 89.0468 51.1824 88.4886 50.4385 88.2137L43.049 85.4836Z" fill="#6751EF"/>
<path d="M60.5833 72.3333C59.6768 72.3333 58.7907 72.089 58.037 71.6311C57.2832 71.1733 56.6958 70.5225 56.3489 69.7612C56.002 68.9998 55.9112 68.162 56.0881 67.3538C56.2649 66.5455 56.7014 65.8031 57.3424 65.2204C57.9834 64.6377 58.8001 64.2408 59.6892 64.0801C60.5783 63.9193 61.4998 64.0018 62.3373 64.3172C63.1748 64.6325 63.8906 65.1666 64.3942 65.8518C64.8979 66.537 65.1667 67.3426 65.1667 68.1667C65.1655 69.2714 64.6822 70.3306 63.8229 71.1117C62.9636 71.8929 61.7985 72.3322 60.5833 72.3333ZM60.5833 65.6667C60.0394 65.6667 59.5078 65.8133 59.0555 66.088C58.6033 66.3627 58.2508 66.7531 58.0427 67.21C57.8345 67.6668 57.7801 68.1694 57.8862 68.6544C57.9923 69.1393 58.2542 69.5848 58.6388 69.9344C59.0234 70.2841 59.5134 70.5222 60.0468 70.6186C60.5803 70.7151 61.1332 70.6656 61.6357 70.4764C62.1382 70.2871 62.5677 69.9667 62.8699 69.5556C63.172 69.1445 63.3333 68.6611 63.3333 68.1667C63.3326 67.5038 63.0426 66.8683 62.5271 66.3996C62.0115 65.9309 61.3125 65.6673 60.5833 65.6667ZM56 82.8217L76.7029 64L78 65.1792L57.2962 84L56 82.8217ZM73.4167 84C72.5102 84 71.624 83.7556 70.8703 83.2978C70.1166 82.84 69.5291 82.1892 69.1822 81.4278C68.8353 80.6665 68.7446 79.8287 68.9214 79.0205C69.0982 78.2122 69.5348 77.4698 70.1758 76.8871C70.8168 76.3043 71.6334 75.9075 72.5225 75.7467C73.4116 75.586 74.3331 75.6685 75.1706 75.9838C76.0081 76.2992 76.7239 76.8333 77.2276 77.5185C77.7312 78.2037 78 79.0092 78 79.8333C77.9988 80.9381 77.5155 81.9972 76.6562 82.7784C75.797 83.5596 74.6319 83.9989 73.4167 84ZM73.4167 77.3333C72.8728 77.3333 72.3411 77.48 71.8888 77.7547C71.4366 78.0294 71.0841 78.4198 70.876 78.8766C70.6679 79.3334 70.6134 79.8361 70.7195 80.3211C70.8256 80.806 71.0875 81.2515 71.4721 81.6011C71.8567 81.9507 72.3467 82.1888 72.8802 82.2853C73.4136 82.3818 73.9665 82.3323 74.469 82.143C74.9715 81.9538 75.401 81.6334 75.7032 81.2223C76.0054 80.8111 76.1667 80.3278 76.1667 79.8333C76.1659 79.1705 75.876 78.535 75.3604 78.0663C74.8448 77.5976 74.1458 77.334 73.4167 77.3333Z" fill="white"/>
<defs>
<filter id="filter0_d_1_80" x="0" y="0" width="146" height="184" filterUnits="userSpaceOnUse" color-interpolation-filters="sRGB">
<feFlood flood-opacity="0" result="BackgroundImageFix"/>
<feColorMatrix in="SourceAlpha" type="matrix" values="0 0 0 0 0 0 0 0 0 0 0 0 0 0 0 0 0 0 127 0" result="hardAlpha"/>
<feMorphology radius="3" operator="dilate" in="SourceAlpha" result="effect1_dropShadow_1_80"/>
<feOffset dx="5" dy="-5"/>
<feGaussianBlur stdDeviation="12.5"/>
<feComposite in2="hardAlpha" operator="out"/>
<feColorMatrix type="matrix" values="0 0 0 0 0 0 0 0 0 0 0 0 0 0 0 0 0 0 0.2 0"/>
<feBlend mode="normal" in2="BackgroundImageFix" result="effect1_dropShadow_1_80"/>
<feBlend mode="normal" in="SourceGraphic" in2="effect1_dropShadow_1_80" result="shape"/>
</filter>
</defs>
</svg>
