<svg width="45" height="84" viewBox="0 0 45 84" fill="none" xmlns="http://www.w3.org/2000/svg">
<path d="M42.9669 30.8139L43.4598 30.7297L42.9669 30.8139ZM26.4376 71.4749L26.7799 71.8392L26.4376 71.4749ZM0.499999 81.5L6.22989 82.2083L3.97835 76.8919L0.499999 81.5ZM4.80084 80.2198C5.58361 79.9604 6.38 79.7284 7.18691 79.5132L6.92927 78.547C6.10797 78.766 5.29202 79.0036 4.48633 79.2705L4.80084 80.2198ZM20.7785 75.7432C22.9006 74.81 24.9298 73.5776 26.7799 71.8392L26.0952 71.1105C24.3422 72.7576 22.4138 73.9317 20.3759 74.8278L20.7785 75.7432ZM26.7799 71.8392C28.1861 70.518 29.5426 69.1504 30.835 67.7366L30.0969 67.0619C28.8229 68.4556 27.4844 69.8052 26.0952 71.1105L26.7799 71.8392ZM37.8043 58.5353C39.8192 55.2137 41.432 51.6929 42.5108 47.9752L41.5505 47.6965C40.499 51.32 38.9245 54.7606 36.9493 58.0166L37.8043 58.5353ZM44.0202 36.5043C43.9778 34.6188 43.7951 32.6938 43.4598 30.7297L42.4741 30.898C42.8012 32.8145 42.9791 34.6908 43.0205 36.5268L44.0202 36.5043ZM43.4598 30.7297C43.2141 29.2906 42.9098 27.876 42.5497 26.4881L41.5817 26.7393C41.9348 28.0999 42.2332 29.4868 42.4741 30.898L43.4598 30.7297ZM39.66 18.3151C38.4525 15.6553 37.026 13.131 35.407 10.761L34.5813 11.3251C36.168 13.6479 37.566 16.1218 38.7495 18.7285L39.66 18.3151ZM29.9196 4.0503C28.9099 3.01192 27.8572 2.01848 26.7649 1.07243L26.1102 1.82832C27.1809 2.75572 28.2129 3.72957 29.2027 4.74743L29.9196 4.0503ZM42.9669 30.8139L43.9527 30.6456L42.9669 30.8139ZM26.4376 71.4749L27.1223 72.2036L27.1223 72.2036L26.4376 71.4749ZM0.499999 81.5L11.8932 83.3785L7.82343 72.5725L0.499999 81.5ZM20.9797 76.2009C23.144 75.2492 25.2236 73.9877 27.1223 72.2036L25.7528 70.7461C24.0484 72.3475 22.1704 73.4925 20.1747 74.3701L20.9797 76.2009ZM27.1223 72.2036C28.537 70.8744 29.9025 69.4978 31.204 68.074L29.7278 66.7246C28.4631 68.1082 27.1335 69.4488 25.7528 70.7461L27.1223 72.2036ZM38.2317 58.7946C40.2666 55.4403 41.8985 51.8794 42.991 48.1145L41.0703 47.5572C40.0325 51.1335 38.4771 54.534 36.5218 57.7573L38.2317 58.7946ZM44.5201 36.4931C44.4771 34.5828 44.292 32.6335 43.9527 30.6456L41.9812 30.9821C42.3043 32.8748 42.4798 34.7267 42.5206 36.538L44.5201 36.4931ZM43.9527 30.6456C43.7046 29.1925 43.3973 27.7641 43.0337 26.3625L41.0978 26.8649C41.4473 28.2118 41.7427 29.5849 41.9812 30.9821L43.9527 30.6456ZM40.1153 18.1084C38.8957 15.422 37.455 12.8726 35.8199 10.479L34.1684 11.6071C35.739 13.9063 37.1228 16.355 38.2942 18.9352L40.1153 18.1084ZM30.2781 3.70172C29.2584 2.65309 28.1953 1.64986 27.0923 0.694491L25.7829 2.20626C26.8428 3.12435 27.8644 4.0884 28.8442 5.09601L30.2781 3.70172Z" fill="#0A0909"/>
</svg>
