<svg width="40" height="40" viewBox="0 0 40 40" fill="none" xmlns="http://www.w3.org/2000/svg">
<path d="M35.625 16.375C35.625 16.375 33.75 18.125 30.5625 20.1875C29.6875 15.125 27.25 8.875 22.5 1.25C22.5 1.25 20.9375 9.4375 15.75 17.125C13.5 13.625 12.5 10.875 12.5 10.875C-3.74999 27.1875 9.75001 38.75 18.25 38.75C29.125 38.75 38.6875 33.5 35.625 16.375Z" fill="#FF9D33"/>
<path d="M29.1875 30.875C30.125 28.8125 30.8125 26.125 30.9375 22.75C30.9375 22.75 29.625 23.875 27.375 25.3125C26.75 21.9375 25.0625 17.8125 21.75 12.6875C21.75 12.6875 20.6875 18.125 17.0625 23.3125C15.5 21 14.8125 19.125 14.8125 19.125C12.125 23.375 11.0625 26.75 11 29.4375C9.5 28.875 8.5625 28.4375 8.5625 28.4375C11.125 36.0625 16.4375 37.75 18.8125 37.75C23.0625 37.75 27.375 36.5 31.625 30.4375C31.625 30.375 30.6875 30.625 29.1875 30.875Z" fill="#FFCE31"/>
<path d="M13.6875 27.4375C13.6875 27.4375 15.4375 29.8125 16.75 29.25C16.75 29.25 19.25 25.3125 22.875 23.125C22.875 23.125 22.125 29.125 23 30.1875C24.125 31.625 27.1875 28.625 27.1875 28.625C27.1875 32.1875 23.3125 36.625 19.8125 36.625C16.4375 36.625 11.5625 32.75 13.6875 27.4375" fill="#FFDF85"/>
<path d="M31.125 11.3125C32.4375 9.4375 33.3125 7.4375 33.3125 7.4375C35.5 11.0625 34.1875 13.25 33.25 13.9375C31.9375 14.9375 29.625 13.5 31.125 11.3125ZM7.24999 10.6875C5.93749 8.5 5.81249 5.75 5.81249 5.75C2.68749 10.4375 3.87499 13.0625 4.93749 13.8125C6.31249 14.875 8.68749 13.25 7.24999 10.6875ZM14.5 5.8125C14.6875 4.3125 14.0625 2.8125 14.0625 2.8125C17 4.75 17 6.375 16.625 7.0625C16.0625 7.875 14.3125 7.5 14.5 5.8125Z" fill="#FF9D33"/>
</svg>
