<svg width="23" height="23" viewBox="0 0 23 23" fill="none" xmlns="http://www.w3.org/2000/svg">
<g filter="url(#filter0_d_1_135)">
<rect x="4" width="15" height="15" rx="7.5" fill="white"/>
<path d="M10.0801 3.98475C10.0288 4.04014 10 4.1145 10 4.19193C10 4.26937 10.0288 4.34372 10.0801 4.39912L12.9504 7.50002L10.0801 10.6003C10.0288 10.6557 10 10.7301 10 10.8075C10 10.8849 10.0288 10.9593 10.0801 11.0147C10.1051 11.0417 10.135 11.0632 10.1679 11.0778C10.2009 11.0925 10.2364 11.1 10.2722 11.1C10.3079 11.1 10.3434 11.0925 10.3764 11.0778C10.4093 11.0632 10.4392 11.0417 10.4642 11.0147L13.5164 7.71651C13.57 7.65859 13.6 7.58091 13.6 7.50002C13.6 7.41914 13.57 7.34146 13.5164 7.28354L10.4642 3.98537C10.4392 3.95836 10.4093 3.93689 10.3764 3.92224C10.3434 3.90758 10.3079 3.90002 10.2722 3.90002C10.2364 3.90002 10.2009 3.90758 10.1679 3.92224C10.135 3.93689 10.1051 3.95836 10.0801 3.98537V3.98475Z" fill="#111111"/>
</g>
<defs>
<filter id="filter0_d_1_135" x="0" y="0" width="23" height="23" filterUnits="userSpaceOnUse" color-interpolation-filters="sRGB">
<feFlood flood-opacity="0" result="BackgroundImageFix"/>
<feColorMatrix in="SourceAlpha" type="matrix" values="0 0 0 0 0 0 0 0 0 0 0 0 0 0 0 0 0 0 127 0" result="hardAlpha"/>
<feOffset dy="4"/>
<feGaussianBlur stdDeviation="2"/>
<feComposite in2="hardAlpha" operator="out"/>
<feColorMatrix type="matrix" values="0 0 0 0 0 0 0 0 0 0 0 0 0 0 0 0 0 0 0.25 0"/>
<feBlend mode="normal" in2="BackgroundImageFix" result="effect1_dropShadow_1_135"/>
<feBlend mode="normal" in="SourceGraphic" in2="effect1_dropShadow_1_135" result="shape"/>
</filter>
</defs>
</svg>
