<svg width="100" height="100" viewBox="0 0 100 100" fill="none" xmlns="http://www.w3.org/2000/svg">
<rect width="100" height="100" rx="10" fill="#8C79D5"/>
<g filter="url(#filter0_d_1_149)">
<path d="M46.8284 24.6291C49.2875 22.5657 52.9672 22.8649 55.0055 25.2941C57.0438 27.7233 56.6995 31.399 54.2404 33.4625C51.7813 35.5259 48.1016 35.2267 46.0633 32.7975C44.0249 30.3683 44.3692 26.6926 46.8284 24.6291ZM34.5626 23.6317L45.6807 36.8817L70.7896 31.3925L72.0159 37.2125L52.5058 42.7455L59.7696 51.4021L83.4858 54.8065L83.423 60.9574L52.8717 59.0718L24.3048 61.5589L24.3676 55.408L47.3126 52.4468L43.0626 42.8418L30.0915 27.3834L34.5626 23.6317Z" fill="#F8F7FD"/>
</g>
<defs>
<filter id="filter0_d_1_149" x="20.3047" y="23.2575" width="67.181" height="47.3014" filterUnits="userSpaceOnUse" color-interpolation-filters="sRGB">
<feFlood flood-opacity="0" result="BackgroundImageFix"/>
<feColorMatrix in="SourceAlpha" type="matrix" values="0 0 0 0 0 0 0 0 0 0 0 0 0 0 0 0 0 0 127 0" result="hardAlpha"/>
<feOffset dy="5"/>
<feGaussianBlur stdDeviation="2"/>
<feComposite in2="hardAlpha" operator="out"/>
<feColorMatrix type="matrix" values="0 0 0 0 0 0 0 0 0 0 0 0 0 0 0 0 0 0 0.25 0"/>
<feBlend mode="normal" in2="BackgroundImageFix" result="effect1_dropShadow_1_149"/>
<feBlend mode="normal" in="SourceGraphic" in2="effect1_dropShadow_1_149" result="shape"/>
</filter>
</defs>
</svg>
