<svg width="15" height="22" viewBox="0 0 15 22" fill="none" xmlns="http://www.w3.org/2000/svg">
<path d="M9.23077 22H4.61538C4.30937 22 4.01588 21.8841 3.79949 21.6779C3.5831 21.4717 3.46154 21.1919 3.46154 20.9003V14.0819H1.15385C0.847827 14.0819 0.554342 13.9661 0.337954 13.7598C0.121566 13.5536 0 13.2738 0 12.9822V9.02314C0 8.73147 0.121566 8.45175 0.337954 8.24551C0.554342 8.03927 0.847827 7.92341 1.15385 7.92341H3.46154V6.05386C3.54242 4.37825 4.3161 2.80133 5.61343 1.66788C6.91076 0.534439 8.62618 -0.063315 10.3846 0.00531977H13.8462C14.1522 0.00531977 14.4457 0.121184 14.662 0.327424C14.8784 0.533665 15 0.813386 15 1.10505V5.0641C15 5.35576 14.8784 5.63549 14.662 5.84173C14.4457 6.04797 14.1522 6.16383 13.8462 6.16383H10.3846V7.92341H13.8462C14.0243 7.92212 14.2004 7.96017 14.3605 8.03458C14.5207 8.10899 14.6606 8.21774 14.7692 8.3523C14.8767 8.48888 14.9493 8.64744 14.9814 8.81541C15.0134 8.98339 15.004 9.15617 14.9538 9.32007L13.8 13.2791C13.7302 13.517 13.5784 13.7255 13.3691 13.8712C13.1598 14.0168 12.9051 14.091 12.6462 14.0819H10.3846V20.9003C10.3846 21.1919 10.263 21.4717 10.0467 21.6779C9.83027 21.8841 9.53679 22 9.23077 22ZM5.76923 19.8005H8.07692V12.9822C8.07692 12.6905 8.19849 12.4108 8.41488 12.2046C8.63126 11.9983 8.92475 11.8824 9.23077 11.8824H11.8154L12.3231 10.1229H9.23077C8.92475 10.1229 8.63126 10.007 8.41488 9.80077C8.19849 9.59453 8.07692 9.31481 8.07692 9.02314V6.05386C8.10655 5.48979 8.3627 4.9582 8.79231 4.56922C9.22191 4.18023 9.79205 3.96366 10.3846 3.96436H12.6923V2.20479H10.3846C9.23863 2.13824 8.11133 2.50505 7.24729 3.22563C6.38324 3.94621 5.85215 4.96245 5.76923 6.05386V9.02314C5.76923 9.31481 5.64767 9.59453 5.43128 9.80077C5.21489 10.007 4.9214 10.1229 4.61538 10.1229H2.30769V11.8824H4.61538C4.9214 11.8824 5.21489 11.9983 5.43128 12.2046C5.64767 12.4108 5.76923 12.6905 5.76923 12.9822V19.8005Z" fill="#7562D2"/>
</svg>
