<svg width="56" height="56" viewBox="0 0 56 56" fill="none" xmlns="http://www.w3.org/2000/svg">
<rect x="20.8494" y="0.849365" width="40" height="40" rx="20" transform="rotate(30 20.8494 0.849365)" fill="#FB50FF"/>
<g filter="url(#filter0_d_1_49)">
<path d="M33.8953 23.6494C33.2833 23.2959 32.5933 23.0986 31.8838 23.0741C31.1742 23.0497 30.4661 23.1987 29.8195 23.5087C29.7647 22.7938 29.5398 22.106 29.1638 21.5038C28.7878 20.9015 28.2719 20.4026 27.6599 20.0494C26.6493 19.4659 25.4432 19.3165 24.307 19.6341C23.1708 19.9517 22.1976 20.7103 21.6014 21.7429C19.2639 25.7915 21.8385 31.7322 23.2776 34.8397C26.6883 34.5322 33.1203 33.7915 35.4578 29.7429C35.753 29.2316 35.9468 28.6684 36.028 28.0855C36.1093 27.5025 36.0764 26.9112 35.9313 26.3454C35.7862 25.7796 35.5317 25.2502 35.1824 24.7876C34.833 24.3251 34.3957 23.9383 33.8953 23.6494Z" fill="white"/>
</g>
<defs>
<filter id="filter0_d_1_49" x="16.6596" y="19.4708" width="23.4119" height="23.3689" filterUnits="userSpaceOnUse" color-interpolation-filters="sRGB">
<feFlood flood-opacity="0" result="BackgroundImageFix"/>
<feColorMatrix in="SourceAlpha" type="matrix" values="0 0 0 0 0 0 0 0 0 0 0 0 0 0 0 0 0 0 127 0" result="hardAlpha"/>
<feOffset dy="4"/>
<feGaussianBlur stdDeviation="2"/>
<feComposite in2="hardAlpha" operator="out"/>
<feColorMatrix type="matrix" values="0 0 0 0 0 0 0 0 0 0 0 0 0 0 0 0 0 0 0.25 0"/>
<feBlend mode="normal" in2="BackgroundImageFix" result="effect1_dropShadow_1_49"/>
<feBlend mode="normal" in="SourceGraphic" in2="effect1_dropShadow_1_49" result="shape"/>
</filter>
</defs>
</svg>
