<svg width="21" height="21" viewBox="0 0 21 21" fill="none" xmlns="http://www.w3.org/2000/svg">
<path d="M14.0437 10.5C14.0437 8.53125 12.4688 6.95625 10.5 6.95625C8.53125 6.95625 6.95625 8.53125 6.95625 10.5C6.95625 12.4688 8.53125 14.0437 10.5 14.0437C12.4688 14.0437 14.0437 12.4688 14.0437 10.5ZM15.8813 10.5C15.8813 13.5188 13.5188 15.8813 10.5 15.8813C7.48125 15.8813 5.11875 13.5188 5.11875 10.5C5.11875 7.48125 7.48125 5.11875 10.5 5.11875C13.5188 5.11875 15.8813 7.48125 15.8813 10.5ZM17.325 4.85625C17.325 5.64375 16.8 6.16875 16.0125 6.16875C15.225 6.16875 14.7 5.64375 14.7 4.85625C14.7 4.06875 15.225 3.54375 16.0125 3.54375C16.8 3.54375 17.325 4.2 17.325 4.85625ZM10.5 1.8375C8.925 1.8375 5.64375 1.70625 4.33125 2.23125C3.4125 2.625 2.625 3.4125 2.3625 4.33125C1.8375 5.64375 1.96875 8.925 1.96875 10.5C1.96875 12.075 1.8375 15.3562 2.3625 16.6687C2.625 17.5875 3.4125 18.375 4.33125 18.6375C5.64375 19.1625 9.05625 19.0312 10.5 19.0312C11.9438 19.0312 15.3562 19.1625 16.6687 18.6375C17.5875 18.2438 18.2438 17.5875 18.6375 16.6687C19.1625 15.225 19.0312 11.9438 19.0312 10.5C19.0312 9.05625 19.1625 5.64375 18.6375 4.33125C18.375 3.4125 17.5875 2.625 16.6687 2.3625C15.3562 1.70625 12.075 1.8375 10.5 1.8375ZM21 10.5V14.8313C21 16.4062 20.475 17.9813 19.2938 19.2938C18.1125 20.475 16.5375 21 14.8313 21H6.16875C4.59375 21 3.01875 20.475 1.70625 19.2938C0.65625 18.1125 0 16.5375 0 14.8313V6.16875C0 4.4625 0.65625 2.8875 1.70625 1.70625C3.01875 0.65625 4.59375 0 6.16875 0H14.8313C16.4062 0 17.9813 0.525 19.2938 1.70625C20.3438 2.8875 21 4.4625 21 6.16875V10.5Z" fill="#7562D2"/>
</svg>
