<svg width="30" height="30" viewBox="0 0 30 30" fill="none" xmlns="http://www.w3.org/2000/svg">
<g clip-path="url(#clip0_1_5)">
<rect width="30" height="30" rx="5" fill="#844EF9"/>
<g filter="url(#filter0_d_1_5)">
<path d="M7.46546 15.8881L9.07413 14.2794C9.10542 14.2481 9.16003 14.2236 9.23964 14.2318C9.32106 14.2403 9.41341 14.2828 9.48955 14.359L15.7121 20.5815C15.7491 20.6186 15.7793 20.6606 15.8011 20.7045C15.8229 20.7484 15.8351 20.7918 15.8392 20.8314C15.8433 20.871 15.8391 20.905 15.8303 20.9323C15.8215 20.9593 15.808 20.9806 15.7916 20.9969L14.183 22.6056C14.1667 22.6219 14.1454 22.6354 14.1183 22.6442C14.091 22.6531 14.057 22.6573 14.0175 22.6532C13.9778 22.6491 13.9344 22.6368 13.8905 22.615C13.8466 22.5932 13.8046 22.5631 13.7675 22.5261L7.54501 16.3035C7.46886 16.2274 7.42629 16.135 7.41787 16.0536C7.40964 15.974 7.43417 15.9194 7.46546 15.8881ZM14.3598 8.9938L15.9684 7.38513C15.9997 7.35384 16.0543 7.32931 16.1339 7.33754C16.2154 7.34597 16.3077 7.38853 16.3838 7.46468L22.6064 13.6872C22.6434 13.7243 22.6736 13.7663 22.6954 13.8102L22.9193 13.699L22.6954 13.8102C22.7171 13.8541 22.7294 13.8975 22.7335 13.9371C22.7376 13.9767 22.7334 14.0107 22.7246 14.038C22.7158 14.065 22.7022 14.0863 22.6859 14.1026L21.0773 15.7113C21.061 15.7276 21.0397 15.7412 21.0126 15.7499C20.9853 15.7588 20.9513 15.763 20.9118 15.7589C20.8721 15.7548 20.8287 15.7425 20.7848 15.7207L20.6737 15.9447L20.7848 15.7207C20.7409 15.699 20.6989 15.6688 20.6618 15.6318L14.4393 9.40923C14.3632 9.33308 14.3206 9.24074 14.3122 9.15931C14.3039 9.07971 14.3285 9.02509 14.3598 8.9938Z" fill="white" stroke="white" stroke-width="0.5" stroke-linecap="round" stroke-linejoin="round"/>
<path d="M9.81619 23.6487L6.42208 20.2546C6.30956 20.1421 6.24357 19.9922 6.23865 19.838C6.23372 19.6838 6.29025 19.5379 6.3958 19.4323L7.58975 18.2384C7.6953 18.1328 7.84123 18.0763 7.99543 18.0812C8.14963 18.0862 8.29948 18.1521 8.412 18.2647L11.8061 21.6588C11.9186 21.7713 11.9846 21.9211 11.9895 22.0753C11.9945 22.2295 11.9379 22.3755 11.8324 22.481L10.6384 23.675C10.5329 23.7805 10.387 23.837 10.2328 23.8321C10.0786 23.8272 9.92871 23.7612 9.81619 23.6487ZM24.4089 9.05594L21.0148 5.66183C20.9023 5.54931 20.7525 5.48333 20.5983 5.4784C20.4441 5.47347 20.2981 5.53 20.1926 5.63555L18.9986 6.8295C18.8931 6.93505 18.8365 7.08098 18.8415 7.23518C18.8464 7.38939 18.9124 7.53923 19.0249 7.65175L22.419 11.0459C22.5315 11.1584 22.6814 11.2244 22.8356 11.2293C22.9898 11.2342 23.1357 11.1777 23.2413 11.0721L24.4352 9.87819C24.5408 9.77264 24.5973 9.62671 24.5924 9.47251C24.5874 9.31831 24.5215 9.16846 24.4089 9.05594ZM6.53538 23.5354L24.2131 5.85771L6.53538 23.5354Z" fill="white"/>
<path d="M6.53538 23.5354L24.2131 5.85771M9.81619 23.6487L6.42208 20.2546C6.30956 20.1421 6.24357 19.9922 6.23865 19.838C6.23372 19.6838 6.29025 19.5379 6.3958 19.4323L7.58975 18.2384C7.6953 18.1328 7.84123 18.0763 7.99543 18.0812C8.14963 18.0862 8.29948 18.1521 8.412 18.2647L11.8061 21.6588C11.9186 21.7713 11.9846 21.9211 11.9895 22.0753C11.9945 22.2295 11.9379 22.3755 11.8324 22.481L10.6384 23.675C10.5329 23.7805 10.387 23.837 10.2328 23.8321C10.0786 23.8272 9.92871 23.7612 9.81619 23.6487ZM24.4089 9.05594L21.0148 5.66183C20.9023 5.54931 20.7525 5.48333 20.5983 5.4784C20.4441 5.47347 20.2981 5.53 20.1926 5.63555L18.9986 6.8295C18.8931 6.93505 18.8365 7.08098 18.8415 7.23518C18.8464 7.38938 18.9124 7.53923 19.0249 7.65175L22.419 11.0459C22.5315 11.1584 22.6814 11.2244 22.8356 11.2293C22.9898 11.2342 23.1357 11.1777 23.2413 11.0721L24.4352 9.87819C24.5408 9.77264 24.5973 9.62671 24.5924 9.47251C24.5874 9.31831 24.5215 9.16846 24.4089 9.05594Z" stroke="white" stroke-width="2" stroke-linecap="round" stroke-linejoin="round"/>
</g>
</g>
<defs>
<filter id="filter0_d_1_5" x="1.2384" y="4.47815" width="28.3542" height="28.3542" filterUnits="userSpaceOnUse" color-interpolation-filters="sRGB">
<feFlood flood-opacity="0" result="BackgroundImageFix"/>
<feColorMatrix in="SourceAlpha" type="matrix" values="0 0 0 0 0 0 0 0 0 0 0 0 0 0 0 0 0 0 127 0" result="hardAlpha"/>
<feOffset dy="4"/>
<feGaussianBlur stdDeviation="2"/>
<feComposite in2="hardAlpha" operator="out"/>
<feColorMatrix type="matrix" values="0 0 0 0 0 0 0 0 0 0 0 0 0 0 0 0 0 0 0.25 0"/>
<feBlend mode="normal" in2="BackgroundImageFix" result="effect1_dropShadow_1_5"/>
<feBlend mode="normal" in="SourceGraphic" in2="effect1_dropShadow_1_5" result="shape"/>
</filter>
<clipPath id="clip0_1_5">
<rect width="30" height="30" rx="5" fill="white"/>
</clipPath>
</defs>
</svg>
