<svg width="60" height="60" viewBox="0 0 60 60" fill="none" xmlns="http://www.w3.org/2000/svg">
<path d="M10.4578 50.7281C10.4578 50.7281 19.4671 60.2062 34.9218 57.8015C50.3765 55.4015 56.5734 41.85 57.8484 34.125C59.4703 24.2859 54.9749 17.5218 54.7359 17.1515C54.5578 16.8797 10.4578 50.7281 10.4578 50.7281Z" fill="#DC5819"/>
<path d="M9.75464 10.0828C0.496826 19.8281 -1.07349 34.064 5.88745 45.0656C9.12651 50.1843 11.1093 51.225 11.1093 51.225C11.1093 51.225 26.2546 60.9375 43.275 46.214C57.8531 33.6046 54.764 17.1843 54.764 17.1843C54.764 17.1843 52.9453 13.2093 49.1203 9.4359C40.6312 1.05465 21.6562 -2.4516 9.75464 10.0828Z" fill="#EF6C32"/>
<path d="M46.8609 7.51875C46.725 7.52813 33.1828 8.50312 18.8578 27.7594C9.81092 39.9188 10.2562 48.5016 10.6078 50.8547C10.6078 50.8547 9.91874 50.2875 9.43123 49.7625C8.94373 49.2422 8.56405 48.7781 8.56405 48.7781C8.52655 44.6578 9.75936 36.8484 17.3578 26.6391C28.9219 11.0813 39.9797 7.02656 44.6156 5.97656C44.6156 5.97656 45.1828 6.30937 45.7312 6.65156C46.1344 6.90469 46.8609 7.51875 46.8609 7.51875Z" fill="#2D3130"/>
<path d="M7.29839 13.0219C8.80308 15.4922 12.4359 20.8312 18.7265 26.4047C26.6437 33.4265 34.875 39.1359 43.1812 43.3687C47.1046 45.3703 50.1187 46.5422 52.2515 47.2312C52.2515 47.2312 51.9421 47.7047 51.6515 48.0937C51.3609 48.4828 51.0421 48.8109 51.0421 48.8109C48.8718 48.075 45.975 46.9031 42.3234 45.0375C33.8765 40.7297 25.514 34.9312 17.4796 27.8062C11.5265 22.5281 7.91714 17.5312 6.14526 14.7328C6.14526 14.7328 6.3937 14.2406 6.72183 13.8047C7.04995 13.3687 7.29839 13.0219 7.29839 13.0219Z" fill="#2D3130"/>
<path d="M24.9281 2.23596C24.2578 3.00002 23.3016 4.24221 22.1859 6.1219C21.1641 7.83752 20.6391 9.54377 20.0297 11.5219C19.0312 14.7656 17.9016 18.4406 14.2031 23.1375C9.06562 29.6625 4.01718 31.8422 1.66406 32.5406C1.66406 32.5406 1.59843 31.9313 1.575 31.5047C1.55156 31.0781 1.56093 30.5953 1.56093 30.5953C3.79687 29.8313 8.22187 27.6938 12.7266 21.9797C16.2094 17.5547 17.2828 14.0578 18.2344 10.9735C18.8531 8.96721 19.4344 7.07346 20.5734 5.16565C21.1125 4.26096 21.6187 3.48752 22.0828 2.84065C22.0828 2.84065 22.6031 2.66721 23.3156 2.50784C23.8687 2.37659 24.9281 2.23596 24.9281 2.23596ZM32.2125 58.1297C30.6422 56.7094 27.3984 53.4657 25.0312 48.9516C22.4109 43.9594 21.1828 36.45 24.6797 31.7578C28.6734 26.4047 36.1312 25.6781 42.9094 25.6781H42.9375C51.5672 25.6828 58.0594 27.4875 58.1344 27.511C58.1344 27.511 58.0828 26.8781 58.0125 26.3391C57.9516 25.875 57.8859 25.4438 57.8859 25.4438C57.5578 25.3594 51.8203 23.8078 42.9375 23.8031H42.9094C35.6672 23.8031 27.6609 24.6188 23.175 30.6375C20.2875 34.5094 19.2281 41.9438 23.3719 49.8235C25.3219 53.536 27.7781 56.4 29.5734 58.2047C29.5734 58.2047 30.0984 58.2235 30.7687 58.2141C31.4297 58.2047 32.2125 58.1297 32.2125 58.1297Z" fill="#2D3130"/>
</svg>
