<svg width="98" height="95" viewBox="0 0 98 95" fill="none" xmlns="http://www.w3.org/2000/svg">
<path d="M2.07069 36.0255C0.927076 33.512 2.03758 30.5474 4.55107 29.4038L64.6252 2.07069C67.1387 0.927085 70.1034 2.03759 71.247 4.55108L82.3944 29.0515C83.538 31.565 82.4275 34.5296 79.914 35.6733L54.8831 47.062L63.1636 78.542L43.0503 52.4458L19.8399 63.0063C17.3264 64.1499 14.3617 63.0394 13.2181 60.5259L2.07069 36.0255Z" fill="#2BE4A2"/>
<g filter="url(#filter0_d_1_46)">
<path d="M26.6263 28.9686L28.9372 33.7365L28.4999 33.9355C27.7437 32.8205 26.7936 32.0811 25.6497 31.7175C24.5096 31.3436 23.4703 31.3702 22.5316 31.7972C21.8063 32.1273 21.3193 32.5849 21.0706 33.1701C20.8257 33.745 20.8182 34.2849 21.0479 34.7898C21.1935 35.1098 21.3976 35.3602 21.6601 35.5412C22.0184 35.7816 22.4995 35.9618 23.1035 36.0818C23.5445 36.1644 24.5053 36.2294 25.9859 36.2767C28.0569 36.3386 29.5558 36.6051 30.4825 37.0761C31.4021 37.5504 32.0786 38.2639 32.5122 39.2168C33.0622 40.4257 33.0633 41.6826 32.5155 42.9876C31.9716 44.2822 30.9743 45.2595 29.5236 45.9196C29.0685 46.1266 28.6173 46.2762 28.1699 46.3681C27.7225 46.4601 27.1348 46.5172 26.4068 46.5395C26.0007 46.5526 25.6875 46.6093 25.467 46.7096C25.2821 46.7937 25.1189 46.9538 24.9774 47.1898C24.8359 47.4259 24.7675 47.7188 24.7721 48.0686L24.3775 48.2481L21.8927 42.7869L22.2873 42.6073C23.2991 44.0009 24.4338 44.9008 25.6915 45.3071C26.9531 45.7029 28.0995 45.6663 29.1306 45.1972C29.927 44.8348 30.4612 44.33 30.7332 43.6827C31.0123 43.0321 31.0208 42.4188 30.7587 41.8428C30.6034 41.5015 30.3605 41.2129 30.03 40.977C29.7066 40.7379 29.2954 40.5603 28.7962 40.4441C28.2937 40.3208 27.468 40.2415 26.3191 40.2064C24.7091 40.1578 23.5126 40.0371 22.7295 39.844C21.9465 39.651 21.2707 39.3448 20.7022 38.9253C20.1408 38.5027 19.7065 37.9536 19.3991 37.278C18.8749 36.1261 18.8516 34.9522 19.3289 33.7565C19.8063 32.5609 20.6885 31.6702 21.9756 31.0846C22.445 30.8711 22.926 30.7209 23.4186 30.6341C23.7917 30.5673 24.2698 30.5429 24.853 30.5608C25.4401 30.5683 25.8296 30.5284 26.0216 30.4411C26.2065 30.357 26.3264 30.2337 26.3813 30.0714C26.4362 29.9091 26.4112 29.59 26.3063 29.1142L26.6263 28.9686ZM29.1874 28.2025L36.654 24.8052L36.8335 25.1999L36.4602 25.3698C35.8984 25.6254 35.5384 25.8621 35.38 26.0801C35.2256 26.2877 35.1491 26.5156 35.1504 26.7639C35.1589 27.009 35.3508 27.5439 35.7262 28.3688L38.9487 35.4514C39.5375 36.7456 40.0234 37.5588 40.4063 37.891C40.7963 38.22 41.2784 38.4212 41.8525 38.4947C42.4267 38.5682 43.0551 38.4497 43.7378 38.1391C44.52 37.7832 45.1056 37.3064 45.4946 36.7089C45.8875 36.1009 46.0784 35.4262 46.0671 34.6846C46.0629 33.9397 45.7114 32.7993 45.0126 31.2633L42.3288 25.3647C42.0343 24.7176 41.7565 24.2861 41.4952 24.0703C41.2339 23.8544 40.9759 23.7401 40.7211 23.7272C40.3267 23.7093 39.838 23.8329 39.2548 24.0982L39.0753 23.7036L44.0779 21.4274L44.2575 21.8221L43.9588 21.958C43.5535 22.1424 43.2529 22.3779 43.0571 22.6644C42.8613 22.9509 42.7774 23.2852 42.8053 23.6673C42.8164 23.9369 42.9562 24.3668 43.2248 24.957L45.7241 30.4503C46.4974 32.1499 46.9418 33.4283 47.0572 34.2856C47.1797 35.1397 46.9511 36.0805 46.3715 37.1081C45.7919 38.1357 44.7519 38.9909 43.2515 39.6735C42 40.243 40.9568 40.5159 40.1221 40.4923C38.9835 40.461 38.0604 40.1772 37.3529 39.6408C36.6453 39.1044 36.0182 38.2353 35.4714 37.0336L32.2489 29.951C31.8703 29.119 31.5895 28.6244 31.4065 28.4674C31.2202 28.3032 30.9858 28.2125 30.7032 28.1951C30.4207 28.1778 29.9752 28.3118 29.3669 28.5971L29.1874 28.2025ZM57.2706 23.6261C58.7886 23.3216 59.9285 23.2708 60.6903 23.4735C61.7811 23.7583 62.5611 24.4162 63.0303 25.4473C63.5253 26.5353 63.4972 27.6338 62.9461 28.7429C62.2638 30.0919 60.8987 31.2323 58.8507 32.1641L51.5015 35.5079L51.3219 35.1132C51.9903 34.8091 52.4144 34.5432 52.594 34.3156C52.7776 34.0776 52.8703 33.838 52.8721 33.5968C52.8811 33.3524 52.7076 32.8391 52.3517 32.0569L48.0809 22.6703C47.725 21.8881 47.452 21.4201 47.2619 21.2662C47.0756 21.1021 46.8341 21.0146 46.5373 21.0037C46.2405 20.9928 45.7615 21.1378 45.1001 21.4387L44.9206 21.044L51.8538 17.8895C53.5107 17.1356 54.752 16.7511 55.5776 16.7359C56.4001 16.7136 57.1447 16.907 57.8114 17.316C58.4749 17.718 58.9572 18.2496 59.258 18.9109C59.5751 19.6078 59.6058 20.3449 59.35 21.1221C59.091 21.8923 58.3979 22.7269 57.2706 23.6261ZM53.2569 25.1046C54.2667 24.6452 54.9581 24.1933 55.331 23.749C55.711 23.3014 55.9352 22.8132 56.0035 22.2843C56.0718 21.7554 55.9604 21.1709 55.6692 20.5309C55.378 19.8909 55.0122 19.4265 54.5718 19.1376C54.1353 18.8384 53.6338 18.6889 53.0674 18.6892C52.501 18.6894 51.7003 18.9292 50.6654 19.4087L53.2569 25.1046ZM53.6355 25.9366L55.7466 30.5766L55.9786 31.1148C56.1533 31.4988 56.382 31.7467 56.6646 31.8584C56.951 31.9598 57.2863 31.9232 57.6703 31.7484C58.2392 31.4896 58.7052 31.1274 59.0684 30.6617C59.4355 30.1857 59.6386 29.6512 59.6778 29.0583C59.7138 28.4583 59.5976 27.8632 59.329 27.2729C59.0216 26.5974 58.5902 26.0641 58.0346 25.6732C57.4759 25.2751 56.8742 25.0939 56.2296 25.1297C55.5849 25.1655 54.7203 25.4345 53.6355 25.9366Z" fill="#F5F5F5"/>
</g>
<defs>
<filter id="filter0_d_1_46" x="9.49573" y="10.6421" width="63.5049" height="49.6168" filterUnits="userSpaceOnUse" color-interpolation-filters="sRGB">
<feFlood flood-opacity="0" result="BackgroundImageFix"/>
<feColorMatrix in="SourceAlpha" type="matrix" values="0 0 0 0 0 0 0 0 0 0 0 0 0 0 0 0 0 0 127 0" result="hardAlpha"/>
<feOffset dy="4"/>
<feGaussianBlur stdDeviation="4"/>
<feComposite in2="hardAlpha" operator="out"/>
<feColorMatrix type="matrix" values="0 0 0 0 0 0 0 0 0 0 0 0 0 0 0 0 0 0 0.25 0"/>
<feBlend mode="normal" in2="BackgroundImageFix" result="effect1_dropShadow_1_46"/>
<feBlend mode="normal" in="SourceGraphic" in2="effect1_dropShadow_1_46" result="shape"/>
</filter>
</defs>
</svg>
