<svg width="29" height="21" viewBox="0 0 29 21" fill="none" xmlns="http://www.w3.org/2000/svg">
<path d="M28 1.01065C28 1.01065 25.5234 2.27282 24.1464 2.63072C23.4072 1.89746 22.4249 1.37775 21.3323 1.14187C20.2396 0.905989 19.0894 0.965323 18.0371 1.31185C16.9848 1.65837 16.0813 2.27536 15.4487 3.07938C14.8161 3.88339 14.4849 4.83564 14.5 5.80732V6.86619C12.3432 6.91444 10.2061 6.50174 8.27897 5.66485C6.35182 4.82795 4.69448 3.59284 3.45455 2.06952C3.45455 2.06952 -1.45455 11.5993 9.59091 15.8348C7.06337 17.3151 4.05242 18.0573 1 17.9525C12.0455 23.2469 25.5455 17.9525 25.5455 5.77556C25.5455 5.48119 25.5111 5.18683 25.4473 4.8967C26.6991 3.83147 28 1.01065 28 1.01065Z" stroke="#7562D2" stroke-width="1.6707" stroke-linecap="round" stroke-linejoin="round"/>
</svg>
