<svg width="63" height="12" viewBox="0 0 63 12" fill="none" xmlns="http://www.w3.org/2000/svg">
<path d="M5.88157 9.86004C4.82583 9.88459 4.62147 9.20654 4.61255 8.71412V5.29897H7.07316V3.31956H4.62235V0.377714H2.69011C2.65831 0.377714 2.60289 0.402374 2.59509 0.464591C2.48185 1.3707 2.00036 2.96085 0 3.59614V5.29897H1.52277V8.89398C1.52277 10.1939 2.42341 12.0405 5.29626 11.9969C6.26565 11.9825 7.3425 11.6249 7.58079 11.3165L6.94647 9.65959C6.70102 9.76219 6.23209 9.8519 5.88157 9.86004ZM17.6618 9.64941V3.31979H13.3403V5.17838L14.173 5.17849C14.447 5.17849 14.5621 5.28347 14.5657 5.51333L14.5615 8.40043C14.5615 8.68346 14.3346 9.74624 12.7604 9.77316C11.6875 9.7916 11.4619 9.22203 11.4619 8.47532V3.31979H8.27971V8.62249C8.27971 9.96434 8.96041 12.0753 12.1373 11.9979C13.1802 11.9723 14.3751 11.5002 14.9961 10.8079L15.022 11.8741H18.5678V10.0557C18.5678 10.0557 18.281 10.0357 18.0664 10.0229C17.8156 10.0082 17.6618 9.88696 17.6618 9.64941ZM36.1036 9.63165L36.1038 7.03663C36.1038 6.11164 36.0915 5.15598 35.4113 4.37601C34.7886 3.66187 33.7548 3.13811 32.1857 3.20621C31.1438 3.25146 30.032 3.68732 29.4184 4.43392L29.3216 4.54365L29.2628 4.47997C28.6319 3.66006 27.6246 3.13811 26.0556 3.20621C25.0132 3.25146 23.9014 3.68732 23.288 4.43392L23.1957 3.31933H19.3506V5.17838L20.2354 5.19014C20.5091 5.19014 20.6248 5.29501 20.6284 5.52476L20.6287 9.16276V9.63165C20.6287 9.8692 20.4736 9.99907 20.2231 10.0137C20.0084 10.0266 19.5735 10.0544 19.5735 10.0544V11.8727L24.7735 11.8742V10.0545C24.7735 10.0545 24.3638 10.0285 24.124 10.0138C23.8733 9.99839 23.7186 9.86909 23.7186 9.63165C23.7186 9.63165 23.7227 7.30948 23.7227 6.84478C23.7227 6.38019 24.1498 5.42713 25.5053 5.42713C26.5987 5.42713 26.8228 6.02702 26.8228 6.72498C26.8228 7.42294 26.824 9.63188 26.824 9.63188C26.824 9.86943 26.6691 9.99907 26.4186 10.0139C26.2039 10.0269 25.7691 10.0548 25.7691 10.0548V11.8727H30.9635V10.0545C30.9635 10.0545 30.5538 10.0285 30.3137 10.0138C30.0633 9.99839 29.9107 9.86909 29.9107 9.63165H29.9029C29.9029 9.63165 29.9072 7.30948 29.9072 6.84478C29.9072 6.38019 30.288 5.42713 31.6437 5.42713C32.737 5.42713 33.0106 6.02702 33.0106 6.72498V9.16276L33.0103 9.63188C33.0103 9.86943 32.8552 9.99907 32.6046 10.0139C32.3896 10.0269 31.9552 10.0548 31.9552 10.0548V11.8727H37.1559V10.0545C37.1559 10.0545 36.7464 10.0285 36.5068 10.0138C36.2558 9.99839 36.1036 9.86909 36.1036 9.63165ZM42.9628 9.88131C42.5305 9.91004 41.7301 9.84454 41.2153 9.03142V7.84025L41.2157 7.83968H41.2153V6.46231C41.2153 5.86673 41.8264 5.34422 42.772 5.31254C43.7297 5.28076 44.5773 5.8691 44.5773 7.53086C44.5773 9.77248 43.485 9.84658 42.9628 9.88131ZM43.4337 3.19716C42.6475 3.22816 41.8178 3.49886 41.2153 3.97035V0H40.102C40.102 0 38.2819 0.582125 36.8726 0.737555L36.8266 2.55565L37.7177 2.55678C37.9912 2.55678 38.1088 2.66153 38.1123 2.89162V11.8665L40.6582 11.864L41.0218 11.1276C41.0997 11.1669 42.2677 12.1551 44.1328 11.9573C46.4812 11.708 47.7144 10.0346 47.7144 7.49579C47.7144 6.16378 47.2604 3.04649 43.4337 3.19716ZM63 4.84761C62.8963 2.81934 59.845 2.72612 58.2498 4.09614L57.9589 3.31062H54.2705V5.16944L55.0438 5.16831C55.3178 5.16831 55.4193 5.27306 55.423 5.50293V9.62441C55.423 9.86196 55.2674 9.99183 55.017 10.0063C54.8021 10.0191 54.3698 10.047 54.3698 10.047V11.8652H59.563V10.047C59.563 10.047 59.1335 10.0191 58.9191 10.0063C58.6681 9.99183 58.5128 9.86185 58.5128 9.62441L58.5115 6.82985C58.5115 6.30609 58.6448 5.43189 59.6719 5.20836C59.7989 6.08245 60.737 6.34353 61.1947 6.34353C62.3505 6.34353 63 5.56458 63 4.84761ZM52.2906 9.62441L52.2934 0H51.1685C51.1685 0 49.2999 0.608369 47.9538 0.737555V2.55576H48.8034C49.077 2.55576 49.1914 2.66063 49.1952 2.89049V9.62463C49.1952 9.86197 49.0404 9.99194 48.7897 10.0064C48.575 10.0192 48.0941 10.0474 48.0941 10.0474V11.8654H53.3921V10.0473C53.3921 10.0473 52.9107 10.0191 52.6962 10.0063C52.4452 9.99183 52.2906 9.86185 52.2906 9.62441Z" fill="#303D4D" fill-opacity="0.6"/>
</svg>
