<svg width="21" height="21" viewBox="0 0 21 21" fill="none" xmlns="http://www.w3.org/2000/svg">
<path d="M4.81619 19.6487L1.42208 16.2546C1.30956 16.1421 1.24357 15.9922 1.23865 15.838C1.23372 15.6838 1.29025 15.5379 1.3958 15.4323L2.58975 14.2384C2.6953 14.1328 2.84123 14.0763 2.99543 14.0812C3.14963 14.0862 3.29948 14.1521 3.412 14.2647L6.80611 17.6588C6.91863 17.7713 6.98461 17.9211 6.98954 18.0753C6.99447 18.2295 6.93794 18.3755 6.83239 18.481L5.63844 19.675C5.53289 19.7805 5.38696 19.837 5.23276 19.8321C5.07856 19.8272 4.92871 19.7612 4.81619 19.6487ZM19.4089 5.05594L16.0148 1.66183C15.9023 1.54931 15.7525 1.48333 15.5983 1.4784C15.4441 1.47347 15.2981 1.53 15.1926 1.63555L13.9986 2.8295C13.8931 2.93505 13.8365 3.08098 13.8415 3.23518C13.8464 3.38939 13.9124 3.53923 14.0249 3.65175L17.419 7.04586C17.5315 7.15838 17.6814 7.22437 17.8356 7.2293C17.9898 7.23423 18.1357 7.17769 18.2413 7.07214L19.4352 5.87819C19.5408 5.77264 19.5973 5.62671 19.5924 5.47251C19.5874 5.31831 19.5215 5.16846 19.4089 5.05594ZM1.53538 19.5354L19.2131 1.85771L1.53538 19.5354Z" fill="white"/>
<path d="M1.53538 19.5354L19.2131 1.85771M4.81619 19.6487L1.42208 16.2546C1.30956 16.1421 1.24357 15.9922 1.23865 15.838C1.23372 15.6838 1.29025 15.5379 1.3958 15.4323L2.58975 14.2384C2.6953 14.1328 2.84123 14.0763 2.99543 14.0812C3.14963 14.0862 3.29948 14.1521 3.412 14.2647L6.80611 17.6588C6.91863 17.7713 6.98461 17.9211 6.98954 18.0753C6.99447 18.2295 6.93794 18.3755 6.83239 18.481L5.63844 19.675C5.53289 19.7805 5.38696 19.837 5.23276 19.8321C5.07856 19.8272 4.92871 19.7612 4.81619 19.6487ZM19.4089 5.05594L16.0148 1.66183C15.9023 1.54931 15.7525 1.48333 15.5983 1.4784C15.4441 1.47347 15.2981 1.53 15.1926 1.63555L13.9986 2.8295C13.8931 2.93505 13.8365 3.08098 13.8415 3.23518C13.8464 3.38938 13.9124 3.53923 14.0249 3.65175L17.419 7.04586C17.5315 7.15838 17.6814 7.22437 17.8356 7.2293C17.9898 7.23422 18.1357 7.17769 18.2413 7.07214L19.4352 5.87819C19.5408 5.77264 19.5973 5.62671 19.5924 5.47251C19.5874 5.31831 19.5215 5.16846 19.4089 5.05594Z" stroke="white" stroke-width="2" stroke-linecap="round" stroke-linejoin="round"/>
</svg>
