<svg width="56" height="17" viewBox="0 0 56 17" fill="none" xmlns="http://www.w3.org/2000/svg">
<path d="M56 0L15.031 15.1282C11.6337 16.3747 8.77997 17 6.47228 17C3.85893 17 1.96191 16.2068 0.785905 14.6183C0.0462326 13.5984 -0.170769 12.3053 0.132567 10.7371C0.435902 9.16879 1.24324 7.49935 2.54992 5.72265C3.63959 4.28592 5.42461 2.39793 7.90963 0.0566597C7.06674 1.20739 6.44865 2.47089 6.08028 3.79621C5.42694 6.21438 6.01495 7.98905 7.84429 9.12225C8.71463 9.6504 9.91164 9.91549 11.4377 9.91549C12.6557 9.91549 14.0277 9.74551 15.5537 9.40555L56 0Z" fill="#888888" fill-opacity="0.7"/>
</svg>
