<svg width="155" height="180" viewBox="0 0 155 180" fill="none" xmlns="http://www.w3.org/2000/svg">
<g filter="url(#filter0_d_1_51)">
<rect x="20" y="10" width="115" height="140" rx="10" fill="white"/>
</g>
<path d="M46.9375 112H37.5859V111.742C40.4531 108.328 42.1914 106.031 42.8008 104.852C43.418 103.672 43.7266 102.52 43.7266 101.395C43.7266 100.574 43.4727 99.8945 42.9648 99.3555C42.457 98.8086 41.8359 98.5352 41.1016 98.5352C39.8984 98.5352 38.9648 99.1367 38.3008 100.34L37.8672 100.188C38.2891 98.6875 38.9297 97.5781 39.7891 96.8594C40.6484 96.1406 41.6406 95.7812 42.7656 95.7812C43.5703 95.7812 44.3047 95.9688 44.9688 96.3438C45.6328 96.7188 46.1523 97.2344 46.5273 97.8906C46.9023 98.5391 47.0898 99.1484 47.0898 99.7188C47.0898 100.758 46.8008 101.812 46.2227 102.883C45.4336 104.328 43.7109 106.344 41.0547 108.93H44.4883C45.332 108.93 45.8789 108.895 46.1289 108.824C46.3867 108.754 46.5977 108.637 46.7617 108.473C46.9258 108.301 47.1406 107.945 47.4062 107.406H47.8281L46.9375 112ZM52.6562 96.1094H60.0977L58.9141 99.1328H52.6562L52.0586 100.715C54.7539 100.816 56.8281 101.488 58.2812 102.73C59.4766 103.754 60.0742 105.027 60.0742 106.551C60.0742 107.527 59.7969 108.484 59.2422 109.422C58.6875 110.352 57.9062 111.07 56.8984 111.578C55.8906 112.078 54.7852 112.328 53.582 112.328C52.2852 112.328 51.2891 112.086 50.5938 111.602C50.1094 111.258 49.8672 110.867 49.8672 110.43C49.8672 110.094 49.9922 109.797 50.2422 109.539C50.5 109.281 50.7969 109.152 51.1328 109.152C51.4375 109.152 51.7461 109.215 52.0586 109.34C52.3711 109.465 52.9062 109.793 53.6641 110.324C54.1406 110.652 54.5508 110.879 54.8945 111.004C55.1367 111.098 55.4102 111.145 55.7148 111.145C56.3555 111.145 56.8984 110.91 57.3438 110.441C57.7969 109.973 58.0234 109.41 58.0234 108.754C58.0234 107.379 57.3359 106.262 55.9609 105.402C54.5859 104.543 52.8516 104.113 50.7578 104.113C50.5469 104.113 50.2305 104.117 49.8086 104.125L52.6562 96.1094ZM72.1211 104.055C72.1211 105.641 71.8984 107.121 71.4531 108.496C71.1875 109.34 70.8281 110.031 70.375 110.57C69.9297 111.109 69.4219 111.539 68.8516 111.859C68.2812 112.172 67.6602 112.328 66.9883 112.328C66.2227 112.328 65.5312 112.133 64.9141 111.742C64.2969 111.352 63.75 110.793 63.2734 110.066C62.9297 109.535 62.6289 108.828 62.3711 107.945C62.0352 106.75 61.8672 105.516 61.8672 104.242C61.8672 102.516 62.1094 100.93 62.5938 99.4844C62.9922 98.2891 63.5977 97.375 64.4102 96.7422C65.2227 96.1016 66.082 95.7812 66.9883 95.7812C67.9102 95.7812 68.7695 96.0977 69.5664 96.7305C70.3711 97.3555 70.9609 98.1992 71.3359 99.2617C71.8594 100.723 72.1211 102.32 72.1211 104.055ZM68.5117 104.031C68.5117 101.25 68.4961 99.6289 68.4648 99.168C68.3867 98.082 68.1992 97.3477 67.9023 96.9648C67.707 96.7148 67.3906 96.5898 66.9531 96.5898C66.6172 96.5898 66.3516 96.6836 66.1562 96.8711C65.8672 97.1445 65.6719 97.6289 65.5703 98.3242C65.4688 99.0117 65.418 101.422 65.418 105.555C65.418 107.805 65.4961 109.312 65.6523 110.078C65.7695 110.633 65.9375 111.004 66.1562 111.191C66.375 111.379 66.6641 111.473 67.0234 111.473C67.4141 111.473 67.707 111.348 67.9023 111.098C68.2305 110.66 68.418 109.984 68.4648 109.07L68.5117 104.031ZM73.4688 103.281H79.1055V97.6562H80.6406V103.281H86.2773V104.828H80.6406V110.406H79.1055V104.828H73.4688V103.281Z" fill="#262626"/>
<path d="M40.5547 127.861V130.527C40.5547 130.967 40.578 131.243 40.6245 131.353C40.6753 131.463 40.7705 131.56 40.9102 131.645C41.054 131.725 41.2466 131.765 41.4878 131.765H41.7734V132H37.2729V131.765H37.5586C37.8083 131.765 38.0093 131.721 38.1616 131.632C38.2716 131.573 38.3563 131.471 38.4155 131.327C38.4621 131.226 38.4854 130.959 38.4854 130.527V124.865C38.4854 124.425 38.4621 124.15 38.4155 124.04C38.369 123.93 38.2738 123.835 38.1299 123.754C37.9902 123.67 37.7998 123.627 37.5586 123.627H37.2729V123.393H41.7734V123.627H41.4878C41.2381 123.627 41.0371 123.672 40.8848 123.761C40.7747 123.82 40.688 123.922 40.6245 124.065C40.578 124.167 40.5547 124.434 40.5547 124.865V127.303H43.5952V124.865C43.5952 124.425 43.5719 124.15 43.5254 124.04C43.4788 123.93 43.3836 123.835 43.2397 123.754C43.0959 123.67 42.9033 123.627 42.6621 123.627H42.3828V123.393H46.877V123.627H46.5977C46.3438 123.627 46.1427 123.672 45.9946 123.761C45.8846 123.82 45.7979 123.922 45.7344 124.065C45.6878 124.167 45.6646 124.434 45.6646 124.865V130.527C45.6646 130.967 45.6878 131.243 45.7344 131.353C45.7809 131.463 45.8761 131.56 46.02 131.645C46.1639 131.725 46.3564 131.765 46.5977 131.765H46.877V132H42.3828V131.765H42.6621C42.916 131.765 43.117 131.721 43.2651 131.632C43.3752 131.573 43.4619 131.471 43.5254 131.327C43.5719 131.226 43.5952 130.959 43.5952 130.527V127.861H40.5547ZM47.2896 132V131.765H47.5752C47.8249 131.765 48.0153 131.727 48.1465 131.651C48.2819 131.57 48.3813 131.463 48.4448 131.327C48.4829 131.238 48.502 130.972 48.502 130.527V124.865C48.502 124.425 48.4787 124.15 48.4321 124.04C48.3856 123.93 48.2904 123.835 48.1465 123.754C48.0068 123.67 47.8164 123.627 47.5752 123.627H47.2896V123.393H51.1426C52.1709 123.393 52.9982 123.532 53.6245 123.812C54.3905 124.154 54.9702 124.673 55.3638 125.367C55.7616 126.061 55.9604 126.846 55.9604 127.722C55.9604 128.327 55.8631 128.885 55.6685 129.397C55.4738 129.905 55.222 130.326 54.9131 130.661C54.6042 130.991 54.2466 131.257 53.8403 131.46C53.4383 131.659 52.9453 131.814 52.3613 131.924C52.1032 131.975 51.6969 132 51.1426 132H47.2896ZM50.5713 123.881V130.597C50.5713 130.953 50.5882 131.171 50.6221 131.251C50.6559 131.331 50.7131 131.393 50.7935 131.435C50.9077 131.499 51.0728 131.53 51.2886 131.53C51.9953 131.53 52.5348 131.289 52.9072 130.807C53.415 130.155 53.6689 129.144 53.6689 127.772C53.6689 126.668 53.4954 125.786 53.1484 125.125C52.8734 124.609 52.52 124.258 52.0884 124.072C51.7837 123.941 51.278 123.877 50.5713 123.881ZM68.7764 123.393V123.627C68.4632 123.678 68.1839 123.845 67.9385 124.129C67.7607 124.34 67.4963 124.838 67.145 125.621L64.1807 132.197H63.9712L61.0195 125.354C60.6641 124.529 60.425 124.044 60.3022 123.9C60.1838 123.757 59.9574 123.666 59.623 123.627V123.393H63.749V123.627H63.6094C63.237 123.627 62.9831 123.674 62.8477 123.767C62.7503 123.831 62.7017 123.924 62.7017 124.046C62.7017 124.123 62.7186 124.214 62.7524 124.319C62.7863 124.421 62.9006 124.698 63.0952 125.151L64.9297 129.436L66.6309 125.621C66.834 125.159 66.9588 124.85 67.0054 124.694C67.0519 124.537 67.0752 124.404 67.0752 124.294C67.0752 124.167 67.0413 124.055 66.9736 123.958C66.9059 123.86 66.8065 123.786 66.6753 123.735C66.4933 123.663 66.2521 123.627 65.9517 123.627V123.393H68.7764ZM70.2998 123.189C70.5749 123.189 70.8076 123.287 70.998 123.481C71.1885 123.672 71.2837 123.903 71.2837 124.173C71.2837 124.444 71.1864 124.675 70.9917 124.865C70.8013 125.056 70.5706 125.151 70.2998 125.151C70.029 125.151 69.7983 125.056 69.6079 124.865C69.4175 124.675 69.3223 124.444 69.3223 124.173C69.3223 123.903 69.4175 123.672 69.6079 123.481C69.7983 123.287 70.029 123.189 70.2998 123.189ZM71.1885 126.065V130.769C71.1885 131.188 71.2371 131.456 71.3345 131.575C71.4318 131.689 71.6222 131.755 71.9058 131.771V132H68.7002V131.771C68.9626 131.763 69.1572 131.687 69.2842 131.543C69.3688 131.446 69.4111 131.188 69.4111 130.769V127.303C69.4111 126.884 69.3625 126.617 69.2651 126.503C69.1678 126.384 68.9795 126.317 68.7002 126.3V126.065H71.1885ZM78.2598 123.393V130.223C78.2598 130.684 78.2725 130.957 78.2979 131.042C78.3317 131.181 78.3952 131.285 78.4883 131.353C78.5856 131.42 78.7528 131.463 78.9897 131.479V131.689L76.4824 132.178V131.238C76.182 131.602 75.9132 131.85 75.6763 131.981C75.4435 132.112 75.179 132.178 74.8828 132.178C74.1253 132.178 73.5265 131.839 73.0864 131.162C72.731 130.612 72.5532 129.937 72.5532 129.137C72.5532 128.498 72.6632 127.927 72.8833 127.423C73.1034 126.916 73.4038 126.533 73.7847 126.274C74.1698 126.016 74.5824 125.887 75.0225 125.887C75.306 125.887 75.5578 125.942 75.7778 126.052C75.9979 126.162 76.2327 126.355 76.4824 126.63V124.84C76.4824 124.387 76.4634 124.114 76.4253 124.021C76.3745 123.898 76.2983 123.807 76.1968 123.748C76.0952 123.689 75.9048 123.659 75.6255 123.659V123.393H78.2598ZM76.4824 127.417C76.1693 126.816 75.7863 126.516 75.3335 126.516C75.1769 126.516 75.0479 126.558 74.9463 126.643C74.7897 126.774 74.6606 127.004 74.5591 127.334C74.4618 127.665 74.4131 128.17 74.4131 128.852C74.4131 129.601 74.4681 130.155 74.5781 130.515C74.6882 130.874 74.8384 131.135 75.0288 131.295C75.1261 131.376 75.2594 131.416 75.4287 131.416C75.8011 131.416 76.1523 131.124 76.4824 130.54V127.417ZM84.7534 128.82H81.4971C81.5352 129.607 81.7446 130.229 82.1255 130.686C82.4175 131.037 82.7687 131.213 83.1792 131.213C83.4331 131.213 83.6637 131.143 83.8711 131.003C84.0785 130.86 84.3006 130.604 84.5376 130.235L84.7534 130.375C84.4318 131.031 84.0763 131.496 83.687 131.771C83.2977 132.042 82.847 132.178 82.335 132.178C81.4548 132.178 80.7882 131.839 80.3354 131.162C79.9715 130.616 79.7896 129.939 79.7896 129.131C79.7896 128.141 80.0562 127.354 80.5894 126.77C81.1268 126.181 81.7552 125.887 82.4746 125.887C83.0755 125.887 83.596 126.135 84.0361 126.63C84.4805 127.121 84.7196 127.851 84.7534 128.82ZM83.1919 128.395C83.1919 127.713 83.1538 127.246 83.0776 126.992C83.0057 126.738 82.8914 126.545 82.7349 126.414C82.646 126.338 82.5275 126.3 82.3794 126.3C82.1593 126.3 81.9795 126.408 81.8398 126.624C81.5902 127 81.4653 127.516 81.4653 128.172V128.395H83.1919ZM88.3018 125.887C88.818 125.887 89.2983 126.021 89.7427 126.287C90.187 126.554 90.5234 126.932 90.752 127.423C90.9847 127.914 91.1011 128.452 91.1011 129.036C91.1011 129.878 90.8874 130.582 90.46 131.149C89.9437 131.835 89.2306 132.178 88.3208 132.178C87.4279 132.178 86.7402 131.865 86.2578 131.238C85.7754 130.612 85.5342 129.886 85.5342 129.061C85.5342 128.21 85.7796 127.47 86.2705 126.839C86.7656 126.205 87.4427 125.887 88.3018 125.887ZM88.3271 126.338C88.1113 126.338 87.9251 126.42 87.7686 126.585C87.6162 126.746 87.5146 127.068 87.4639 127.55C87.4173 128.028 87.394 128.695 87.394 129.55C87.394 130.003 87.4237 130.426 87.4829 130.819C87.5295 131.12 87.6289 131.348 87.7812 131.505C87.9336 131.661 88.1071 131.74 88.3018 131.74C88.4922 131.74 88.6509 131.687 88.7778 131.581C88.9429 131.437 89.0529 131.236 89.1079 130.978C89.1925 130.576 89.2349 129.764 89.2349 128.541C89.2349 127.821 89.1947 127.328 89.1143 127.062C89.0339 126.791 88.9154 126.594 88.7588 126.471C88.6488 126.382 88.5049 126.338 88.3271 126.338Z" fill="#262626" fill-opacity="0.4"/>
<rect x="33" y="38" width="50" height="50" rx="25" fill="white"/>
<g filter="url(#filter1_d_1_51)">
<path d="M44.6667 48H71.3333C72.25 48 73 48.7676 73 49.7059V77L43 76.9659V49.7059C43 48.7676 43.75 48 44.6667 48ZM51.3333 49.7059L48 54.8235H49.6667L53 49.7059H51.3333ZM58 49.7059H56.3333L53 54.8235H54.6667L58 49.7059ZM63 49.7059H61.3333L58 54.8235H59.6667L63 49.7059ZM68 49.7059H66.3333L63 54.8235H64.6667L68 49.7059ZM69.6667 73.5882V56.5294H46.3333V73.5882H69.6667ZM54.6667 58.2353L64.6667 65.0588L54.6667 71.8824V58.2353Z" fill="#F24E1E"/>
</g>
<defs>
<filter id="filter0_d_1_51" x="0" y="0" width="155" height="180" filterUnits="userSpaceOnUse" color-interpolation-filters="sRGB">
<feFlood flood-opacity="0" result="BackgroundImageFix"/>
<feColorMatrix in="SourceAlpha" type="matrix" values="0 0 0 0 0 0 0 0 0 0 0 0 0 0 0 0 0 0 127 0" result="hardAlpha"/>
<feOffset dy="10"/>
<feGaussianBlur stdDeviation="10"/>
<feComposite in2="hardAlpha" operator="out"/>
<feColorMatrix type="matrix" values="0 0 0 0 0 0 0 0 0 0 0 0 0 0 0 0 0 0 0.2 0"/>
<feBlend mode="normal" in2="BackgroundImageFix" result="effect1_dropShadow_1_51"/>
<feBlend mode="normal" in="SourceGraphic" in2="effect1_dropShadow_1_51" result="shape"/>
</filter>
<filter id="filter1_d_1_51" x="39" y="48" width="38" height="38" filterUnits="userSpaceOnUse" color-interpolation-filters="sRGB">
<feFlood flood-opacity="0" result="BackgroundImageFix"/>
<feColorMatrix in="SourceAlpha" type="matrix" values="0 0 0 0 0 0 0 0 0 0 0 0 0 0 0 0 0 0 127 0" result="hardAlpha"/>
<feOffset dy="5"/>
<feGaussianBlur stdDeviation="2"/>
<feComposite in2="hardAlpha" operator="out"/>
<feColorMatrix type="matrix" values="0 0 0 0 0 0 0 0 0 0 0 0 0 0 0 0 0 0 0.25 0"/>
<feBlend mode="normal" in2="BackgroundImageFix" result="effect1_dropShadow_1_51"/>
<feBlend mode="normal" in="SourceGraphic" in2="effect1_dropShadow_1_51" result="shape"/>
</filter>
</defs>
</svg>
