<svg width="26" height="16" viewBox="0 0 26 16" fill="none" xmlns="http://www.w3.org/2000/svg">
<path d="M26 7.93106C26 7.87688 26 7.81533 25.9971 7.74392C25.9942 7.54447 25.9884 7.32041 25.9826 7.08156C25.9594 6.39458 25.9187 5.71006 25.8549 5.06494C25.7679 4.17605 25.6402 3.4349 25.4661 2.87842C25.2823 2.29769 24.9222 1.76805 24.4216 1.34244C23.9211 0.916822 23.2976 0.610147 22.6136 0.453062C21.7924 0.265928 20.1848 0.1502 17.9214 0.0787934C16.8449 0.0443213 15.6929 0.0221605 14.5408 0.00984903C14.1375 0.00492444 13.7632 0.0024623 13.4266 0H12.5734C12.2368 0.0024623 11.8625 0.00492444 11.4592 0.00984903C10.3071 0.0221605 9.15513 0.0443213 8.07857 0.0787934C5.81518 0.152662 4.20469 0.26839 3.38638 0.453062C2.70215 0.609762 2.07846 0.916307 1.57783 1.34198C1.0772 1.76765 0.717206 2.2975 0.533929 2.87842C0.35692 3.4349 0.232143 4.17605 0.145089 5.06494C0.08125 5.71006 0.040625 6.39458 0.0174107 7.08156C0.00870531 7.32041 0.00580353 7.54447 0.00290174 7.74392C0.00290174 7.81533 0 7.87688 0 7.93106V8.06894C0 8.12311 -4.4321e-08 8.18467 0.00290174 8.25608C0.00580353 8.45552 0.0116071 8.67959 0.0174107 8.91844C0.040625 9.60542 0.08125 10.2899 0.145089 10.9351C0.232143 11.8239 0.359821 12.5651 0.533929 13.1216C0.905357 14.301 1.99643 15.2318 3.38638 15.5469C4.20469 15.7341 5.81518 15.8498 8.07857 15.9212C9.15513 15.9557 10.3071 15.9778 11.4592 15.9901C11.8625 15.9951 12.2368 15.9975 12.5734 16H13.4266C13.7632 15.9975 14.1375 15.9951 14.5408 15.9901C15.6929 15.9778 16.8449 15.9557 17.9214 15.9212C20.1848 15.8473 21.7953 15.7316 22.6136 15.5469C24.0036 15.2318 25.0946 14.3035 25.4661 13.1216C25.6431 12.5651 25.7679 11.8239 25.8549 10.9351C25.9187 10.2899 25.9594 9.60542 25.9826 8.91844C25.9913 8.67959 25.9942 8.45552 25.9971 8.25608C25.9971 8.18467 26 8.12311 26 8.06894V7.93106ZM23.9107 8.05909C23.9107 8.1108 23.9107 8.16743 23.9078 8.23392C23.9049 8.42598 23.8991 8.63773 23.8933 8.86673C23.873 9.5217 23.8324 10.1767 23.7714 10.7849C23.6931 11.5777 23.5828 12.2278 23.4464 12.6636C23.2665 13.2324 22.7384 13.683 22.071 13.8332C21.4616 13.9711 19.9266 14.0819 17.8402 14.1484C16.7839 14.1828 15.6464 14.205 14.5118 14.2173C14.1143 14.2222 13.7458 14.2247 13.415 14.2247H12.585L11.4882 14.2173C10.3536 14.205 9.21897 14.1828 8.15982 14.1484C6.07344 14.0794 4.53549 13.9711 3.92902 13.8332C3.26161 13.6805 2.73348 13.2324 2.55357 12.6636C2.41719 12.2278 2.30692 11.5777 2.22857 10.7849C2.16763 10.1767 2.12991 9.5217 2.1067 8.86673C2.09799 8.63773 2.09509 8.42351 2.09219 8.23392C2.09219 8.16743 2.08929 8.10834 2.08929 8.05909V7.9409C2.08929 7.8892 2.08929 7.83256 2.09219 7.76608C2.09509 7.57402 2.10089 7.36226 2.1067 7.13327C2.12701 6.4783 2.16763 5.82333 2.22857 5.21514C2.30692 4.42228 2.41719 3.77224 2.55357 3.33641C2.73348 2.76762 3.26161 2.31702 3.92902 2.16682C4.53839 2.02893 6.07344 1.91813 8.15982 1.85165C9.21607 1.81717 10.3536 1.79501 11.4882 1.7827C11.8857 1.77778 12.2542 1.77532 12.585 1.77532H13.415L14.5118 1.7827C15.6464 1.79501 16.781 1.81717 17.8402 1.85165C19.9266 1.92059 21.4645 2.02893 22.071 2.16682C22.7384 2.31948 23.2665 2.76762 23.4464 3.33641C23.5828 3.77224 23.6931 4.42228 23.7714 5.21514C23.8324 5.82333 23.8701 6.4783 23.8933 7.13327C23.902 7.36226 23.9049 7.57648 23.9078 7.76608C23.9078 7.83256 23.9107 7.89166 23.9107 7.9409V8.05909ZM10.4174 11.2995L17.1496 7.97538L10.4174 4.70052V11.2995Z" fill="#7562D2"/>
</svg>
